<?xml version="1.0" standalone="no"?>
<!DOCTYPE svg PUBLIC "-//W3C//DTD SVG 20010904//EN"
 "http://www.w3.org/TR/2001/REC-SVG-20010904/DTD/svg10.dtd">
<svg version="1.0" xmlns="http://www.w3.org/2000/svg"
 width="128.000000pt" height="128.000000pt" viewBox="0 0 128.000000 128.000000"
 preserveAspectRatio="xMidYMid meet">

<g transform="translate(0.000000,128.000000) scale(0.100000,-0.100000)"
fill="#000000" stroke="none">
<path d="M94 1218 c4 -24 27 -275 51 -558 25 -283 47 -516 49 -517 2 -2 103
-31 225 -65 l221 -61 221 61 c122 34 223 63 225 65 2 1 23 234 48 517 25 283
48 534 52 558 l5 42 -551 0 -551 0 5 -42z m993 -95 c-4 -27 -23 -239 -43 -473
-27 -306 -41 -428 -50 -436 -8 -6 -84 -30 -171 -54 -86 -23 -163 -44 -170 -47
-10 -4 -13 12 -13 71 l0 75 -52 15 c-162 46 -231 66 -234 68 -1 2 -6 51 -10
111 l-7 107 72 0 c68 0 71 -1 71 -24 0 -70 9 -84 69 -101 31 -9 64 -18 74 -21
15 -5 17 4 17 100 l0 106 -75 0 c-85 0 -81 -4 -88 88 l-5 62 84 0 84 0 0 65 0
65 -165 0 c-124 0 -167 3 -170 13 -2 6 -6 40 -10 75 l-6 62 176 0 175 0 0 60
0 60 226 0 227 0 -6 -47z"/>
</g>
</svg>
