<?xml version="1.0" standalone="no"?>
<!DOCTYPE svg PUBLIC "-//W3C//DTD SVG 20010904//EN"
 "http://www.w3.org/TR/2001/REC-SVG-20010904/DTD/svg10.dtd">
<svg version="1.0" xmlns="http://www.w3.org/2000/svg"
 width="128.000000pt" height="128.000000pt" viewBox="0 0 128.000000 128.000000"
 preserveAspectRatio="xMidYMid meet">

<g transform="translate(0.000000,128.000000) scale(0.100000,-0.100000)"
fill="#000000" stroke="none">
<path d="M126 903 c18 -197 40 -448 50 -558 l17 -201 223 -62 224 -62 225 62
225 62 0 30 c1 17 22 268 48 559 l48 527 -546 0 -546 0 32 -357z m860 100 c-3
-21 -6 -55 -6 -75 l0 -38 -266 0 -267 0 7 -46 c3 -26 6 -55 6 -65 0 -18 13
-19 250 -19 l250 0 0 -22 c0 -13 -7 -110 -17 -216 l-17 -192 -65 -19 c-36 -11
-100 -29 -141 -40 l-75 -20 -144 39 c-79 22 -145 41 -147 42 -1 2 -6 51 -10
111 l-7 107 70 0 71 0 7 -55 c6 -54 7 -55 48 -65 23 -6 56 -15 73 -19 22 -6
54 -3 106 11 l75 20 7 61 c3 33 6 71 6 83 l0 24 -229 0 c-149 0 -232 4 -236
10 -4 6 -13 79 -21 163 -7 84 -16 176 -19 205 l-5 52 351 0 352 0 -7 -37z"/>
</g>
</svg>
