<?xml version="1.0" standalone="no"?>
<!DOCTYPE svg PUBLIC "-//W3C//DTD SVG 20010904//EN"
 "http://www.w3.org/TR/2001/REC-SVG-20010904/DTD/svg10.dtd">
<svg version="1.0" xmlns="http://www.w3.org/2000/svg"
 width="225.000000pt" height="225.000000pt" viewBox="0 0 225.000000 225.000000"
 preserveAspectRatio="xMidYMid meet">

<g transform="translate(0.000000,225.000000) scale(0.100000,-0.100000)"
fill="#000000" stroke="none">
<path d="M0 1125 l0 -1125 1125 0 1125 0 0 1125 0 1125 -1125 0 -1125 0 0
-1125z m1253 1040 c115 -20 225 -77 322 -168 142 -132 208 -280 208 -467 0
-159 -32 -246 -206 -555 -57 -102 -76 -159 -77 -229 0 -53 -35 -123 -71 -141
-23 -12 -81 -15 -309 -15 -166 0 -289 4 -300 10 -32 17 -60 75 -74 158 -17 99
-66 215 -150 356 -140 236 -168 412 -97 621 109 318 412 491 754 430z m158
-1650 c57 -30 68 -118 20 -166 l-29 -29 -272 0 -272 0 -29 29 c-23 23 -29 38
-29 71 0 51 12 75 48 94 41 23 520 23 563 1z m-136 -270 c20 -19 25 -34 25
-75 0 -41 -5 -56 -25 -75 -23 -24 -30 -25 -143 -25 -106 0 -122 2 -146 21 -23
18 -26 28 -26 79 0 51 3 61 26 79 24 19 40 21 146 21 113 0 120 -1 143 -25z"/>
<path d="M1001 1965 c-69 -20 -114 -46 -174 -104 -100 -96 -150 -215 -151
-361 -1 -106 17 -162 93 -288 119 -198 150 -259 166 -325 10 -37 24 -74 32
-82 11 -12 45 -15 153 -15 l138 0 25 29 c13 16 27 48 31 72 7 44 55 144 113
236 98 156 147 291 147 403 -1 183 -102 335 -277 415 -71 33 -215 43 -296 20z"/>
</g>
</svg>
