<?xml version="1.0" standalone="no"?>
<!DOCTYPE svg PUBLIC "-//W3C//DTD SVG 20010904//EN"
 "http://www.w3.org/TR/2001/REC-SVG-20010904/DTD/svg10.dtd">
<svg version="1.0" xmlns="http://www.w3.org/2000/svg"
 width="514.000000pt" height="512.000000pt" viewBox="0 0 514.000000 512.000000"
 preserveAspectRatio="xMidYMid meet">

<g transform="translate(0.000000,512.000000) scale(0.100000,-0.100000)"
fill="#000000" stroke="none">
<path d="M2235 5103 c-457 -40 -768 -180 -869 -392 l-31 -66 -3 -337 -3 -338
621 0 620 0 0 -90 0 -90 -923 0 c-890 0 -927 -1 -1003 -20 -308 -78 -516 -338
-598 -750 -25 -129 -36 -262 -36 -457 0 -577 141 -968 415 -1151 132 -89 160
-95 467 -100 l267 -4 3 374 c4 346 6 379 26 453 69 254 229 421 469 487 76 21
98 22 838 28 753 6 761 6 835 29 235 71 386 217 447 431 17 60 18 116 18 760
l0 695 -23 60 c-98 259 -418 427 -901 475 -94 9 -541 11 -636 3z m-279 -397
c219 -102 151 -427 -89 -427 -134 0 -226 91 -227 224 0 165 167 272 316 203z"/>
</g>
</svg>
